<svg width="13" height="12" viewBox="0 0 13 12" fill="none" xmlns="http://www.w3.org/2000/svg">
<path d="M12.0359 5.64416L7.27976 0.887996C7.14868 0.760555 6.95956 0.712726 6.78365 0.762526C6.60775 0.812326 6.47177 0.952189 6.42694 1.12943C6.38212 1.30667 6.43525 1.49436 6.56633 1.6218L10.446 5.49468H1.45685C1.17542 5.49468 0.947266 5.72283 0.947266 6.00427C0.947266 6.28571 1.17542 6.51386 1.45685 6.51386H10.4392L6.56633 10.3867C6.46921 10.4814 6.41443 10.6112 6.41443 10.7468C6.41443 10.8825 6.46921 11.0123 6.56633 11.107C6.65999 11.2052 6.79072 11.2595 6.92644 11.2564C7.0617 11.2571 7.19151 11.2032 7.28655 11.107L12.0427 6.35079C12.2414 6.15183 12.2414 5.82953 12.0427 5.63057L12.0359 5.64416Z" fill="black"/>
</svg>
