<svg width="16" height="15" viewBox="0 0 16 15" fill="none" xmlns="http://www.w3.org/2000/svg">
<path fill-rule="evenodd" clip-rule="evenodd" d="M11.8982 0C12.9662 0 13.9936 0.422119 14.7495 1.17954C15.5061 1.93538 15.929 2.95483 15.929 4.02208V10.314C15.929 12.5361 14.1211 14.3361 11.8982 14.3361H4.03004C1.80715 14.3361 0 12.5361 0 10.314V4.02208C0 1.79998 1.79918 0 4.03004 0H11.8982ZM13.166 5.20875L13.2297 5.14504C13.42 4.91407 13.42 4.57956 13.2209 4.34859C13.1102 4.22992 12.9581 4.15744 12.7996 4.14151C12.6323 4.13275 12.4731 4.1893 12.3528 4.3008L8.76159 7.16802C8.29965 7.55112 7.6378 7.55112 7.16869 7.16802L3.58466 4.3008C3.33696 4.11762 2.99449 4.14151 2.78821 4.35655C2.57317 4.57159 2.54927 4.91407 2.73166 5.153L2.836 5.25654L6.45985 8.08394C6.90586 8.43438 7.44665 8.62553 8.01293 8.62553C8.57761 8.62553 9.12796 8.43438 9.57318 8.08394L13.166 5.20875Z" fill="black"/>
</svg>
